<?xml version="1.0" encoding="UTF-8" standalone="no"?>
<!DOCTYPE svg PUBLIC "-//W3C//DTD SVG 1.1//EN"
 "http://www.w3.org/Graphics/SVG/1.1/DTD/svg11.dtd">
<!-- Generated by graphviz version 2.47.0 (20210316.0004)
 -->
<!-- Title: dependencies Pages: 1 -->
<svg width="1788pt" height="284pt"
 viewBox="0.00 0.00 1788.00 284.00" xmlns="http://www.w3.org/2000/svg" xmlns:xlink="http://www.w3.org/1999/xlink">
<g id="graph0" class="graph" transform="scale(1 1) rotate(0) translate(4 280)">
<title>dependencies</title>
<polygon fill="white" stroke="transparent" points="-4,4 -4,-280 1784,-280 1784,4 -4,4"/>
<text text-anchor="start" x="869.01" y="-42.4" font-family="Times-12" font-weight="bold" font-size="14.00">Legend</text>
<polygon fill="#ffffb3" stroke="transparent" points="656,-10 656,-30 676,-30 676,-10 656,-10"/>
<text text-anchor="start" x="679.63" y="-15.4" font-family="Times-12" font-size="14.00"> &#160;Declarations</text>
<polygon fill="#8dd3c7" stroke="transparent" points="769,-10 769,-30 789,-30 789,-10 769,-10"/>
<text text-anchor="start" x="792.73" y="-15.4" font-family="Times-12" font-size="14.00"> &#160;Module</text>
<polygon fill="#80b1d3" stroke="transparent" points="855,-10 855,-30 875,-30 875,-10 855,-10"/>
<text text-anchor="start" x="878.78" y="-15.4" font-family="Times-12" font-size="14.00"> &#160;Bootstrap</text>
<polygon fill="#fdb462" stroke="transparent" points="952,-10 952,-30 972,-30 972,-10 952,-10"/>
<text text-anchor="start" x="975.67" y="-15.4" font-family="Times-12" font-size="14.00"> &#160;Providers</text>
<polygon fill="#fb8072" stroke="transparent" points="1048,-10 1048,-30 1068,-30 1068,-10 1048,-10"/>
<text text-anchor="start" x="1071.73" y="-15.4" font-family="Times-12" font-size="14.00"> &#160;Exports</text>
<g id="clust1" class="cluster">
<title>cluster_AppModule</title>
<polygon fill="none" stroke="black" stroke-dasharray="1,5" points="8,-70 8,-268 1772,-268 1772,-70 8,-70"/>
</g>
<g id="clust2" class="cluster">
<title>cluster_AppModule_declarations</title>
<polygon fill="none" stroke="black" points="343,-78 343,-130 1764,-130 1764,-78 343,-78"/>
</g>
<g id="clust15" class="cluster">
<title>cluster_AppModule_bootstrap</title>
<polygon fill="none" stroke="black" points="869,-208 869,-260 993,-260 993,-208 869,-208"/>
</g>
<g id="clust13" class="cluster">
<title>cluster_AppModule_imports</title>
<polygon fill="none" stroke="black" points="16,-78 16,-130 335,-130 335,-78 16,-78"/>
</g>
<!-- AnalysisComponent -->
<g id="node1" class="node">
<title>AnalysisComponent</title>
<polygon fill="#ffffb3" stroke="black" points="1756.32,-122 1625.68,-122 1625.68,-86 1756.32,-86 1756.32,-122"/>
<text text-anchor="middle" x="1691" y="-99.8" font-family="Times,serif" font-size="14.00">AnalysisComponent</text>
</g>
<!-- AppModule -->
<g id="node11" class="node">
<title>AppModule</title>
<polygon fill="#8dd3c7" stroke="black" points="972.66,-187 969.66,-191 948.66,-191 945.66,-187 889.34,-187 889.34,-151 972.66,-151 972.66,-187"/>
<text text-anchor="middle" x="931" y="-164.8" font-family="Times,serif" font-size="14.00">AppModule</text>
</g>
<!-- AnalysisComponent&#45;&gt;AppModule -->
<g id="edge1" class="edge">
<title>AnalysisComponent&#45;&gt;AppModule</title>
<path fill="none" stroke="black" d="M1691,-122.09C1691,-145.13 1691,-182 1691,-182 1691,-182 982.67,-182 982.67,-182"/>
<polygon fill="black" stroke="black" points="982.67,-178.5 972.67,-182 982.67,-185.5 982.67,-178.5"/>
</g>
<!-- AppComponent -->
<g id="node2" class="node">
<title>AppComponent</title>
<polygon fill="#ffffb3" stroke="black" points="1607.94,-122 1502.06,-122 1502.06,-86 1607.94,-86 1607.94,-122"/>
<text text-anchor="middle" x="1555" y="-99.8" font-family="Times,serif" font-size="14.00">AppComponent</text>
</g>
<!-- AppComponent&#45;&gt;AppModule -->
<g id="edge2" class="edge">
<title>AppComponent&#45;&gt;AppModule</title>
<path fill="none" stroke="black" d="M1555,-122.04C1555,-143.66 1555,-177 1555,-177 1555,-177 982.91,-177 982.91,-177"/>
<polygon fill="black" stroke="black" points="982.91,-173.5 972.91,-177 982.91,-180.5 982.91,-173.5"/>
</g>
<!-- CoachComponent -->
<g id="node3" class="node">
<title>CoachComponent</title>
<polygon fill="#ffffb3" stroke="black" points="1484.6,-122 1367.4,-122 1367.4,-86 1484.6,-86 1484.6,-122"/>
<text text-anchor="middle" x="1426" y="-99.8" font-family="Times,serif" font-size="14.00">CoachComponent</text>
</g>
<!-- CoachComponent&#45;&gt;AppModule -->
<g id="edge3" class="edge">
<title>CoachComponent&#45;&gt;AppModule</title>
<path fill="none" stroke="black" d="M1445.52,-122.22C1445.52,-142.37 1445.52,-172 1445.52,-172 1445.52,-172 982.67,-172 982.67,-172"/>
<polygon fill="black" stroke="black" points="982.67,-168.5 972.67,-172 982.67,-175.5 982.67,-168.5"/>
</g>
<!-- CoachComponent&#45;&gt;AppModule -->
<g id="edge4" class="edge">
<title>CoachComponent&#45;&gt;AppModule</title>
<path fill="none" stroke="black" d="M1406.48,-122.22C1406.48,-140.83 1406.48,-167 1406.48,-167 1406.48,-167 982.78,-167 982.78,-167"/>
<polygon fill="black" stroke="black" points="982.78,-163.5 972.78,-167 982.78,-170.5 982.78,-163.5"/>
</g>
<!-- HomeComponent -->
<g id="node4" class="node">
<title>HomeComponent</title>
<polygon fill="#ffffb3" stroke="black" points="1349.55,-122 1234.45,-122 1234.45,-86 1349.55,-86 1349.55,-122"/>
<text text-anchor="middle" x="1292" y="-99.8" font-family="Times,serif" font-size="14.00">HomeComponent</text>
</g>
<!-- HomeComponent&#45;&gt;AppModule -->
<g id="edge5" class="edge">
<title>HomeComponent&#45;&gt;AppModule</title>
<path fill="none" stroke="black" d="M1292,-122.03C1292,-139.06 1292,-162 1292,-162 1292,-162 982.76,-162 982.76,-162"/>
<polygon fill="black" stroke="black" points="982.76,-158.5 972.76,-162 982.76,-165.5 982.76,-158.5"/>
</g>
<!-- MatchComponent -->
<g id="node5" class="node">
<title>MatchComponent</title>
<polygon fill="#ffffb3" stroke="black" points="1216.6,-122 1099.4,-122 1099.4,-86 1216.6,-86 1216.6,-122"/>
<text text-anchor="middle" x="1158" y="-99.8" font-family="Times,serif" font-size="14.00">MatchComponent</text>
</g>
<!-- MatchComponent&#45;&gt;AppModule -->
<g id="edge6" class="edge">
<title>MatchComponent&#45;&gt;AppModule</title>
<path fill="none" stroke="black" d="M1158,-122.24C1158,-137.57 1158,-157 1158,-157 1158,-157 982.9,-157 982.9,-157"/>
<polygon fill="black" stroke="black" points="982.9,-153.5 972.9,-157 982.9,-160.5 982.9,-153.5"/>
</g>
<!-- PhotoEditorComponent -->
<g id="node6" class="node">
<title>PhotoEditorComponent</title>
<polygon fill="#ffffb3" stroke="black" points="1081.5,-122 932.5,-122 932.5,-86 1081.5,-86 1081.5,-122"/>
<text text-anchor="middle" x="1007" y="-99.8" font-family="Times,serif" font-size="14.00">PhotoEditorComponent</text>
</g>
<!-- PhotoEditorComponent&#45;&gt;AppModule -->
<g id="edge7" class="edge">
<title>PhotoEditorComponent&#45;&gt;AppModule</title>
<path fill="none" stroke="black" d="M952.66,-122.11C952.66,-122.11 952.66,-140.99 952.66,-140.99"/>
<polygon fill="black" stroke="black" points="949.16,-140.99 952.66,-150.99 956.16,-140.99 949.16,-140.99"/>
</g>
<!-- PlayerComponent -->
<g id="node7" class="node">
<title>PlayerComponent</title>
<polygon fill="#ffffb3" stroke="black" points="914.6,-122 797.4,-122 797.4,-86 914.6,-86 914.6,-122"/>
<text text-anchor="middle" x="856" y="-99.8" font-family="Times,serif" font-size="14.00">PlayerComponent</text>
</g>
<!-- PlayerComponent&#45;&gt;AppModule -->
<g id="edge8" class="edge">
<title>PlayerComponent&#45;&gt;AppModule</title>
<path fill="none" stroke="black" d="M901.86,-122.11C901.86,-122.11 901.86,-140.99 901.86,-140.99"/>
<polygon fill="black" stroke="black" points="898.36,-140.99 901.86,-150.99 905.36,-140.99 898.36,-140.99"/>
</g>
<!-- RivalTeamsComponent -->
<g id="node8" class="node">
<title>RivalTeamsComponent</title>
<polygon fill="#ffffb3" stroke="black" points="779.48,-122 630.52,-122 630.52,-86 779.48,-86 779.48,-122"/>
<text text-anchor="middle" x="705" y="-99.8" font-family="Times,serif" font-size="14.00">RivalTeamsComponent</text>
</g>
<!-- RivalTeamsComponent&#45;&gt;AppModule -->
<g id="edge9" class="edge">
<title>RivalTeamsComponent&#45;&gt;AppModule</title>
<path fill="none" stroke="black" d="M705,-122.24C705,-137.57 705,-157 705,-157 705,-157 879.28,-157 879.28,-157"/>
<polygon fill="black" stroke="black" points="879.28,-160.5 889.28,-157 879.28,-153.5 879.28,-160.5"/>
</g>
<!-- StatsComponent -->
<g id="node9" class="node">
<title>StatsComponent</title>
<polygon fill="#ffffb3" stroke="black" points="612.06,-122 503.94,-122 503.94,-86 612.06,-86 612.06,-122"/>
<text text-anchor="middle" x="558" y="-99.8" font-family="Times,serif" font-size="14.00">StatsComponent</text>
</g>
<!-- StatsComponent&#45;&gt;AppModule -->
<g id="edge10" class="edge">
<title>StatsComponent&#45;&gt;AppModule</title>
<path fill="none" stroke="black" d="M576.09,-122.03C576.09,-139.06 576.09,-162 576.09,-162 576.09,-162 879.24,-162 879.24,-162"/>
<polygon fill="black" stroke="black" points="879.24,-165.5 889.24,-162 879.24,-158.5 879.24,-165.5"/>
</g>
<!-- StatsComponent&#45;&gt;AppModule -->
<g id="edge11" class="edge">
<title>StatsComponent&#45;&gt;AppModule</title>
<path fill="none" stroke="black" d="M539.91,-122.22C539.91,-140.83 539.91,-167 539.91,-167 539.91,-167 879.15,-167 879.15,-167"/>
<polygon fill="black" stroke="black" points="879.15,-170.5 889.15,-167 879.15,-163.5 879.15,-170.5"/>
</g>
<!-- WelcomeComponent -->
<g id="node10" class="node">
<title>WelcomeComponent</title>
<polygon fill="#ffffb3" stroke="black" points="485.47,-122 350.53,-122 350.53,-86 485.47,-86 485.47,-122"/>
<text text-anchor="middle" x="418" y="-99.8" font-family="Times,serif" font-size="14.00">WelcomeComponent</text>
</g>
<!-- WelcomeComponent&#45;&gt;AppModule -->
<g id="edge12" class="edge">
<title>WelcomeComponent&#45;&gt;AppModule</title>
<path fill="none" stroke="black" d="M418,-122.22C418,-142.37 418,-172 418,-172 418,-172 879.02,-172 879.02,-172"/>
<polygon fill="black" stroke="black" points="879.02,-175.5 889.02,-172 879.02,-168.5 879.02,-175.5"/>
</g>
<!-- AppComponent  -->
<g id="node14" class="node">
<title>AppComponent </title>
<polygon fill="#80b1d3" stroke="black" points="985.44,-252 876.56,-252 876.56,-216 985.44,-216 985.44,-252"/>
<text text-anchor="middle" x="931" y="-229.8" font-family="Times,serif" font-size="14.00">AppComponent </text>
</g>
<!-- AppModule&#45;&gt;AppComponent  -->
<g id="edge15" class="edge">
<title>AppModule&#45;&gt;AppComponent </title>
<path fill="none" stroke="black" stroke-dasharray="1,5" d="M931,-187.11C931,-187.11 931,-205.99 931,-205.99"/>
<polygon fill="black" stroke="black" points="927.5,-205.99 931,-215.99 934.5,-205.99 927.5,-205.99"/>
</g>
<!-- AppRoutingModule -->
<g id="node12" class="node">
<title>AppRoutingModule</title>
<polygon fill="#8dd3c7" stroke="black" points="327.27,-122 324.27,-126 303.27,-126 300.27,-122 198.73,-122 198.73,-86 327.27,-86 327.27,-122"/>
<text text-anchor="middle" x="263" y="-99.8" font-family="Times,serif" font-size="14.00">AppRoutingModule</text>
</g>
<!-- AppRoutingModule&#45;&gt;AppModule -->
<g id="edge13" class="edge">
<title>AppRoutingModule&#45;&gt;AppModule</title>
<path fill="none" stroke="black" d="M263,-122.04C263,-143.66 263,-177 263,-177 263,-177 879.21,-177 879.21,-177"/>
<polygon fill="black" stroke="black" points="879.21,-180.5 889.21,-177 879.21,-173.5 879.21,-180.5"/>
</g>
<!-- MaterialExampleModule -->
<g id="node13" class="node">
<title>MaterialExampleModule</title>
<polygon fill="#8dd3c7" stroke="black" points="180.23,-122 177.23,-126 156.23,-126 153.23,-122 23.77,-122 23.77,-86 180.23,-86 180.23,-122"/>
<text text-anchor="middle" x="102" y="-99.8" font-family="Times,serif" font-size="14.00">MaterialExampleModule</text>
</g>
<!-- MaterialExampleModule&#45;&gt;AppModule -->
<g id="edge14" class="edge">
<title>MaterialExampleModule&#45;&gt;AppModule</title>
<path fill="none" stroke="black" d="M102,-122.09C102,-145.13 102,-182 102,-182 102,-182 879.32,-182 879.32,-182"/>
<polygon fill="black" stroke="black" points="879.32,-185.5 889.32,-182 879.32,-178.5 879.32,-185.5"/>
</g>
</g>
</svg>
